<svg width="16" height="16" viewBox="0 0 16 16" fill="none" xmlns="http://www.w3.org/2000/svg">
<path fill-rule="evenodd" clip-rule="evenodd" d="M13.6667 4.66669C13.6667 4.39054 13.4428 4.16669 13.1667 4.16669H1.16669C0.890545 4.16669 0.666687 4.39054 0.666687 4.66669C0.666687 4.94283 0.890545 5.16669 1.16669 5.16669H13.1667C13.4428 5.16669 13.6667 4.94283 13.6667 4.66669Z" fill="#737780"/>
<path fill-rule="evenodd" clip-rule="evenodd" d="M10.3334 8C10.3334 7.72386 10.1727 7.5 9.9744 7.5H1.35902C1.16076 7.5 1.00004 7.72386 1.00004 8C1.00004 8.27614 1.16076 8.5 1.35902 8.5H9.9744C10.1727 8.5 10.3334 8.27614 10.3334 8Z" fill="#737780"/>
<path fill-rule="evenodd" clip-rule="evenodd" d="M13.6667 11.3334C13.6667 11.0572 13.4428 10.8334 13.1667 10.8334H1.16669C0.890545 10.8334 0.666687 11.0572 0.666687 11.3334C0.666687 11.6095 0.890545 11.8334 1.16669 11.8334H13.1667C13.4428 11.8334 13.6667 11.6095 13.6667 11.3334Z" fill="#737780"/>
</svg>
